<svg width="1110" height="732" viewBox="0 0 1110 732" fill="none" xmlns="http://www.w3.org/2000/svg">
<g opacity="0.1" clip-path="url(#clip0_112_11457)">
<path d="M727.708 420.504C730.401 402.635 731.785 384.355 731.785 365.755C731.785 346.623 730.309 327.826 727.48 309.485C715.963 234.92 681.914 167.776 632.5 115.262C600.794 81.5611 562.775 53.8671 520.313 34.0814C473.393 12.2121 421.073 0 365.893 0C163.822 0 0 163.761 0 365.755C0 567.749 163.822 731.51 365.893 731.51C421.073 731.51 473.393 719.298 520.313 697.429C562.775 677.643 600.794 649.949 632.5 616.248C590.783 609.267 552.505 592.128 520.313 567.46C473.576 531.645 439.649 479.983 426.58 420.504H727.708ZM313.146 309.485C310.316 327.826 308.841 346.623 308.841 365.755C308.841 384.355 310.225 402.635 312.918 420.504C324.207 495.678 358.377 563.369 408.126 616.248C394.388 618.529 380.285 619.731 365.893 619.731C225.575 619.731 111.822 506.02 111.822 365.755C111.822 225.491 225.575 111.78 365.893 111.78C380.285 111.78 394.388 112.981 408.126 115.262C449.842 122.243 488.12 139.382 520.313 164.05C566.639 199.561 600.398 250.645 613.695 309.485H313.146Z" fill="white"/>
<path d="M674.735 0C619.554 0 567.234 12.2121 520.314 34.0814C477.853 53.8671 439.833 81.5611 408.128 115.262C449.844 122.243 488.122 139.382 520.314 164.05C566.641 199.561 600.4 250.645 613.697 309.485H313.148C310.318 327.826 308.842 346.623 308.842 365.755C308.842 384.355 310.227 402.635 312.92 420.504C324.208 495.678 358.379 563.369 408.128 616.248C439.833 649.949 477.853 677.643 520.314 697.429C567.234 719.298 619.554 731.51 674.735 731.51C876.805 731.51 1040.63 567.749 1040.63 365.755C1040.63 163.761 876.805 0 674.735 0ZM674.735 619.731C660.343 619.731 646.239 618.529 632.501 616.248C590.785 609.267 552.507 592.128 520.314 567.46C473.578 531.645 439.651 479.983 426.582 420.504H727.709C730.402 402.635 731.787 384.355 731.787 365.755C731.787 346.623 730.311 327.826 727.481 309.485C715.964 234.92 681.916 167.776 632.501 115.262C646.239 112.981 660.343 111.78 674.735 111.78C815.052 111.78 928.806 225.491 928.806 365.755C928.806 506.02 815.052 619.731 674.735 619.731Z" fill="white"/>
<path d="M1033.77 730.748C1075.79 730.748 1109.84 696.704 1109.84 654.708C1109.84 612.712 1075.79 578.667 1033.77 578.667C991.762 578.667 957.705 612.712 957.705 654.708C957.705 696.704 991.762 730.748 1033.77 730.748Z" fill="white"/>
</g>
<defs>
<clipPath id="clip0_112_11457">
<rect width="1109.85" height="731.51" fill="white"/>
</clipPath>
</defs>
</svg>
